<?xml version="1.0" encoding="UTF-8"?>
<svg width="14px" height="14px" viewBox="0 0 14 14" version="1.1" xmlns="http://www.w3.org/2000/svg" xmlns:xlink="http://www.w3.org/1999/xlink">
    <title>编组 20</title>
    <g id="V1.0.1" stroke="none" stroke-width="1" fill="none" fill-rule="evenodd">
        <g id="3.4、图片转PDF" transform="translate(-1051.000000, -326.000000)">
            <g id="矩形" transform="translate(270.000000, 150.000000)">
                <g id="编组-37" transform="translate(186.000000, 45.000000)">
                    <g id="编组-15" transform="translate(29.000000, 86.000000)">
                        <g id="编组-8备份-19" transform="translate(0.000000, 34.543486)">
                            <g id="编组-20" transform="translate(566.000000, 10.456514)">
                                <rect id="矩形" x="0" y="0" width="14" height="14"></rect>
                                <g id="编组" transform="translate(0.875000, 0.875000)" fill="#626D78" fill-rule="nonzero">
                                    <path d="M7.78587725,4.92485056 C8.61207541,4.92485056 9.37815841,5.24707125 9.94154541,5.81122895 C10.5262157,6.37534334 10.8540792,7.15447163 10.8486678,7.96689711 C10.8486678,8.5510932 10.5866274,9.27709943 10.2644717,9.78037126 L11.9160974,11.4319969 C12.1180227,11.6339222 12.1380611,11.8350768 11.9361358,12.0370021 C11.9361358,12.016193 11.7950963,12.1171556 11.6540569,12.1171556 L11.6540569,12.1179263 C11.5205812,12.113799 11.3926256,12.0637057 11.2918245,11.9761162 L9.65946656,10.3645673 C9.12544131,10.7838872 8.46562372,11.0108862 7.78664796,11.0088786 C6.97841833,11.0127532 6.20211155,10.693685 5.63020909,10.1225653 C5.04582231,9.55831973 4.71824452,8.77920828 4.72378641,7.96689711 C4.72608871,7.15615942 5.05243412,6.37997904 5.63020909,5.81122895 C6.20099853,5.23891222 6.97759581,4.91961052 7.78587725,4.92485056 Z M7.76583886,5.73030469 C7.18164277,5.73030469 6.61748507,5.95226838 6.19436679,6.37538665 C5.77556503,6.79028766 5.54305564,7.35737695 5.55005554,7.94685872 C5.55005554,8.53105481 5.77124851,9.09521252 6.19436679,9.51833079 C6.61825577,9.92141068 7.18164277,10.162642 7.76660957,10.162642 C8.35003495,10.162642 8.91419265,9.94144907 9.33808164,9.51833079 C9.75707687,9.10324305 9.98960244,8.53583615 9.98239289,7.94608802 C9.98239289,7.36266263 9.76042921,6.79773422 9.33731093,6.37538665 C8.92253878,5.95630209 8.35543331,5.72350794 7.76583886,5.73030469 Z" id="形状结合"></path>
                                    <path d="M9.31727254,0.814733895 L0.81560094,0.814733895 L0.81560094,10.46553 L4.15969967,10.46553 L4.15969967,11.2709191 L0.955869658,11.2709191 C0.431788733,11.2709191 0.00944011443,10.8478008 0.00944011443,10.3244906 L0.00944011443,0.95577332 C0.00867045649,0.431692395 0.43255944,0.00857411808 0.955869658,0.00857411808 L9.1962715,0.00857411808 C9.72035243,0.00857411808 10.1434707,0.432463102 10.1434707,0.95577332 L10.1434707,4.50102664 L9.33731093,4.50102664 L9.33731093,0.815504602 L9.31727254,0.815504602 L9.31727254,0.814733895 Z" id="路径"></path>
                                    <path d="M1.96395473,3.17155664 C1.96395473,2.95036367 2.18514771,2.76924746 2.46722656,2.76924746 L7.08068012,2.76924746 C7.36275897,2.76924746 7.58472266,2.95036367 7.58472266,3.17155664 C7.58472266,3.39352033 7.36275897,3.57463653 7.08068012,3.57463653 L2.46722656,3.57463653 C2.18514771,3.57463653 1.96395473,3.39352033 1.96395473,3.17155664 Z" id="路径"></path>
                                    <path d="M1.98399312,5.81122895 C1.98399312,5.58926527 2.2051861,5.40814906 2.48726495,5.40814906 L4.3015098,5.40814906 C4.58358865,5.40814906 4.80478163,5.58926527 4.80478163,5.81122895 C4.80478163,6.03319264 4.58358865,6.21430884 4.3015098,6.21430884 L2.48726495,6.21430884 C2.2051861,6.21430884 1.98399312,6.03319264 1.98399312,5.81122895 Z" id="路径"></path>
                                </g>
                            </g>
                        </g>
                    </g>
                </g>
            </g>
        </g>
    </g>
</svg>