<?xml version="1.0" encoding="UTF-8"?>
<svg width="14px" height="14px" viewBox="0 0 14 14" version="1.1" xmlns="http://www.w3.org/2000/svg" xmlns:xlink="http://www.w3.org/1999/xlink">
    <title>编组 22</title>
    <g id="V1.0.1" stroke="none" stroke-width="1" fill="none" fill-rule="evenodd">
        <g id="3.4、图片转PDF" transform="translate(-1103.000000, -326.000000)">
            <g id="矩形" transform="translate(270.000000, 150.000000)">
                <g id="编组-37" transform="translate(186.000000, 45.000000)">
                    <g id="编组-15" transform="translate(29.000000, 86.000000)">
                        <g id="编组-8备份-19" transform="translate(0.000000, 34.543486)">
                            <g id="编组-23" transform="translate(566.000000, 10.456514)">
                                <g id="编组-22" transform="translate(52.000000, 0.000000)">
                                    <rect id="矩形" x="0" y="0" width="14" height="14"></rect>
                                    <path d="M8.931446,1.27550738 C9.42822041,1.27550738 9.8393312,1.64765063 9.89551784,2.12372916 L9.902061,2.23531636 L9.902061,2.87369374 L12.5864086,2.87369374 C12.6965159,2.87153409 12.8028809,2.91322482 12.8815909,2.9893931 C12.9603009,3.06556138 13.0047507,3.1698153 13.0049471,3.2787167 C13.0049471,3.48198228 12.8569669,3.65089838 12.6616674,3.68592584 L12.5864086,3.6925907 L11.3904734,3.6925907 L11.3904734,11.0158232 C11.3904734,11.4176609 11.2289893,11.8030287 10.9415685,12.0870956 C10.6900754,12.335654 10.3602007,12.4888257 10.0094277,12.5230923 L9.85798458,12.5304296 L4.56415378,12.5304296 C3.76511703,12.5304296 3.10842975,11.9256735 3.03793066,11.1536912 L3.03166498,11.0158121 L3.03166498,3.70144173 L1.61380013,3.70144173 C1.46427073,3.70144174 1.32609986,3.6225578 1.25133516,3.49450474 C1.17657045,3.36645168 1.17657045,3.2086838 1.25133516,3.08063074 C1.31114692,2.97818829 1.41153863,2.90721408 1.52586189,2.88292209 L1.61380013,2.87369374 L4.621429,2.87369374 L4.621429,2.23531636 C4.62267901,1.74360483 4.99679056,1.33862925 5.47898279,1.28221852 L5.592056,1.27550738 L8.931446,1.27550738 Z M10.5533853,3.6925907 L3.8687531,3.6925907 L3.8687531,11.0158232 C3.86920771,11.3952839 4.18041608,11.7026591 4.56415378,11.7026591 L4.56415378,11.7026591 L9.85880841,11.7026591 C10.2415103,11.7026591 10.5533853,11.394271 10.5533853,11.0158232 L10.5533853,11.0158232 L10.5533853,3.6925907 Z M8.931446,2.09440434 L5.592056,2.09440434 C5.52756578,2.09440434 5.47505927,2.13408516 5.45663627,2.19035979 L5.449555,2.23531636 L5.449555,2.87369374 L9.073946,2.87369374 L9.073946,2.23531636 C9.073946,2.15640563 9.01205877,2.09440434 8.931446,2.09440434 Z" id="形状结合" fill="#626D78" fill-rule="nonzero"></path>
                                    <path d="M5.91820893,10.4305959 C6.14135661,10.4305959 6.32206187,10.2454067 6.32206187,10.0167219 L6.32206187,5.61221966 C6.32206187,5.38364336 6.14125075,5.19834566 5.91820893,5.19834566 C5.69516712,5.19834566 5.514356,5.38364336 5.514356,5.61221966 L5.514356,10.0167219 C5.52220855,10.2454067 5.70292454,10.4305959 5.91820893,10.4305959 L5.91820893,10.4305959 Z" id="路径" fill="#626D78" fill-rule="nonzero"></path>
                                    <path d="M8.48178093,10.4305959 C8.70571279,10.4305959 8.88642879,10.2454067 8.88642879,10.0167219 L8.88642879,5.61221966 C8.88642879,5.3834184 8.70543972,5.19793833 8.48217839,5.19793833 C8.25891707,5.19793833 8.077928,5.3834184 8.077928,5.61221966 L8.077928,10.0167219 C8.077928,10.2454067 8.258644,10.4305959 8.48178093,10.4305959 L8.48178093,10.4305959 Z" id="路径" fill="#626D78" fill-rule="nonzero"></path>
                                </g>
                            </g>
                        </g>
                    </g>
                </g>
            </g>
        </g>
    </g>
</svg>