<?xml version="1.0" encoding="UTF-8"?>
<svg width="14px" height="14px" viewBox="0 0 14 14" version="1.1" xmlns="http://www.w3.org/2000/svg" xmlns:xlink="http://www.w3.org/1999/xlink">
    <title>编组 21</title>
    <g id="V1.0.1" stroke="none" stroke-width="1" fill="none" fill-rule="evenodd">
        <g id="3.4、图片转PDF" transform="translate(-1077.000000, -326.000000)">
            <g id="矩形" transform="translate(270.000000, 150.000000)">
                <g id="编组-37" transform="translate(186.000000, 45.000000)">
                    <g id="编组-15" transform="translate(29.000000, 86.000000)">
                        <g id="编组-8备份-19" transform="translate(0.000000, 34.543486)">
                            <g id="编组-23" transform="translate(566.000000, 10.456514)">
                                <g id="编组-21" transform="translate(26.000000, 0.000000)">
                                    <rect id="矩形" x="0" y="0" width="14" height="14"></rect>
                                    <path d="M11.9970678,4.50708052 L11.4845679,4.50708052 L11.3154529,3.83058319 C11.18176,3.3043158 10.7078642,2.93596895 10.1648807,2.93627342 L6.7132016,2.93627342 C6.62810711,2.93590396 6.54541146,2.90803884 6.47744665,2.85683344 L5.29357946,1.97790117 C5.08731851,1.83264741 4.84116619,1.75477202 4.58889214,1.75495838 L2.08274775,1.75495838 C1.43304068,1.756306 0.904716946,2.27892427 0.896315555,2.92857842 L0.896315555,10.664774 C0.886240923,10.7188623 0.881093997,10.7737531 0.880938057,10.8287714 C0.885168434,11.479603 1.41397239,12.0049616 2.06481776,12.0049616 L10.2827457,12.0049616 C10.7933121,12.0065008 11.247092,11.6798602 11.4076804,11.1952038 L13.1194375,6.07020512 C13.1603807,5.94619834 13.1811442,5.81642115 13.1809365,5.68583022 C13.1753328,5.0351604 12.6477433,4.50985702 11.9970552,4.50708052 L11.9970678,4.50708052 Z M2.08277277,2.52370852 L4.58889214,2.52370852 C4.67355108,2.52656288 4.75551419,2.55418264 4.82463457,2.60314851 L6.00594927,3.49232827 C6.20985814,3.6434278 6.45684581,3.72515914 6.71063659,3.72551822 L10.1623282,3.72551822 C10.3439277,3.72583492 10.5021845,3.84927729 10.5467031,4.02533565 L10.6671331,4.50708052 L4.11994725,4.50708052 C3.63500755,4.50584974 3.19879814,4.80174171 3.02063753,5.25277033 L1.68557689,8.58401949 L1.68557689,2.92857842 C1.68416397,2.70738404 1.86157933,2.52653137 2.08276026,2.52370852 L2.08277277,2.52370852 Z M12.3711952,5.81652019 L10.6594506,10.9415189 C10.615278,11.113829 10.4606346,11.2348069 10.2827582,11.2362063 L2.06483027,11.2362063 C1.86263633,11.2342972 1.69505964,11.0789291 1.67789037,10.8774564 C1.6804444,10.8647712 1.6804444,10.8517041 1.67789037,10.8390189 L1.67789037,10.690399 L3.72788985,5.56540026 C3.78578795,5.41281285 3.93113212,5.31117218 4.09432225,5.30915032 L11.9970678,5.30915032 C12.2150137,5.30915032 12.3917027,5.48582677 12.3917027,5.70377272 C12.3915612,5.74561011 12.3846354,5.78714765 12.3711952,5.82676769 L12.3711952,5.81652019 Z" id="形状" fill="#626D78" fill-rule="nonzero"></path>
                                </g>
                            </g>
                        </g>
                    </g>
                </g>
            </g>
        </g>
    </g>
</svg>